<svg version="1.0" xmlns="http://www.w3.org/2000/svg"
 width="1920.000000pt" height="1920.000000pt" viewBox="0 0 1920.000000 1920.000000"
 preserveAspectRatio="xMidYMid meet">

<g transform="translate(0.000000,1920.000000) scale(0.100000,-0.100000)"
fill="#000000" stroke="none">
<path d="M15156 14834 c-63 -23 -131 -82 -248 -214 -61 -69 -204 -226 -317
-349 -333 -363 -488 -536 -631 -706 -158 -187 -207 -239 -274 -284 -80 -55
-140 -74 -236 -75 -108 0 -181 22 -399 121 -605 274 -1119 419 -1726 485 -159
17 -701 17 -860 0 -1059 -115 -1970 -565 -2745 -1358 -303 -310 -568 -653
-990 -1284 -720 -1076 -1353 -2232 -2365 -4315 -137 -280 -385 -789 -553
-1130 -350 -711 -375 -769 -375 -870 -1 -109 45 -172 157 -214 91 -34 168 -39
606 -45 647 -9 1910 -62 4600 -196 431 -21 799 -32 1335 -41 1190 -18 1686 2
2111 86 918 181 1681 646 2208 1345 352 467 573 1016 652 1625 22 164 25 638
6 795 -79 640 -292 1230 -637 1760 -510 785 -1344 1298 -2306 1416 -181 23
-557 23 -734 1 -363 -45 -680 -141 -989 -300 -313 -160 -598 -385 -818 -645
-597 -709 -750 -1595 -402 -2332 178 -375 481 -677 869 -865 222 -108 432
-169 665 -196 130 -15 380 -7 510 16 298 53 596 194 802 380 239 216 457 612
512 930 20 115 21 336 1 451 -45 267 -215 616 -380 781 -155 155 -330 168
-518 39 -121 -83 -149 -178 -88 -300 17 -34 65 -108 107 -166 140 -192 197
-353 197 -555 -1 -227 -83 -421 -239 -564 -115 -105 -288 -175 -529 -212 -105
-16 -331 -16 -425 0 -338 59 -634 267 -834 584 -102 163 -145 304 -153 497 -8
207 26 357 132 575 244 503 674 830 1297 984 798 199 1513 52 2063 -421 396
-342 702 -890 840 -1508 36 -162 56 -338 62 -540 9 -340 -31 -613 -133 -920
-194 -579 -575 -1053 -1097 -1362 -1078 -638 -2912 -738 -4122 -223 -463 197
-810 490 -1099 928 -577 876 -774 2136 -506 3242 165 684 491 1326 936 1850
334 393 739 713 1194 944 418 212 815 330 1320 393 140 17 656 17 815 0 644
-71 1195 -260 1842 -629 230 -132 300 -158 411 -151 90 6 157 35 229 101 26
23 145 152 267 287 450 499 724 794 1180 1269 177 183 336 354 354 380 18 25
40 69 48 98 29 99 -1 161 -142 298 -56 55 -127 130 -156 167 -82 103 -166 159
-237 157 -14 0 -43 -7 -65 -15z m-8896 -6264 c84 -1248 373 -2128 951 -2896
105 -139 149 -219 149 -271 0 -48 -41 -90 -108 -110 -53 -17 -137 -18 -1267
-15 -797 2 -1229 7 -1265 14 -40 7 -63 19 -87 43 -58 58 -45 135 70 395 430
977 905 1924 1349 2690 144 249 192 330 194 327 1 -1 7 -81 14 -177z"/>
</g>
</svg>
